PathFileType  4	(X/Y/Z) C:\Users\antoi\Documents\MyRepositories\mobilecap\ResultsAnalysis
DataRate	CameraRate	NumFrames	NumMarkers	Units	OrigDataRate	OrigDataStartFrame	OrigNumFrames
100.0	100.0	6	51	mm	100.0	466	1861
Frame#	Time	r_knee			r_shank_antsup			r_ankle			r_calc			r_5meta			r_toe			L_knee			L_shank_antsup			L_ankle			L_calc			L_5meta			L_toe			r_sh2			r_sh3			r_sh4			L_sh2			L_sh3			r_thigh1			r_thigh2			r_thigh3			r_thigh4			r_thigh5			L_thigh1			L_thigh2			L_thigh3			L_thigh4			r.ASIS			r.PSIS			L.ASIS			L.PSIS			C7			R_Shoulder			L_Shoulder			R_Sternum			L_Sternum			R_humerus			R_elbow_med			R_elbow_lat			R_forearm			R_wrist_radius			R_wrist_ulna			L_humerus			L_elbow_med			L_elbow_lat			L_forearm			L_wrist_radius			L_wrist_ulna			R_HJC			L_HJC			R_HJC_reg			L_HJC_reg			
		X1	Y1	Z1	X2	Y2	Z2	X3	Y3	Z3	X4	Y4	Z4	X5	Y5	Z5	X6	Y6	Z6	X7	Y7	Z7	X8	Y8	Z8	X9	Y9	Z9	X10	Y10	Z10	X11	Y11	Z11	X12	Y12	Z12	X13	Y13	Z13	X14	Y14	Z14	X15	Y15	Z15	X16	Y16	Z16	X17	Y17	Z17	X18	Y18	Z18	X19	Y19	Z19	X20	Y20	Z20	X21	Y21	Z21	X22	Y22	Z22	X23	Y23	Z23	X24	Y24	Z24	X25	Y25	Z25	X26	Y26	Z26	X27	Y27	Z27	X28	Y28	Z28	X29	Y29	Z29	X30	Y30	Z30	X31	Y31	Z31	X32	Y32	Z32	X33	Y33	Z33	X34	Y34	Z34	X35	Y35	Z35	X36	Y36	Z36	X37	Y37	Z37	X38	Y38	Z38	X39	Y39	Z39	X40	Y40	Z40	X41	Y41	Z41	X42	Y42	Z42	X43	Y43	Z43	X44	Y44	Z44	X45	Y45	Z45	X46	Y46	Z46	X47	Y47	Z47	X48	Y48	Z48	X49	Y49	Z49	X50	Y50	Z50	X51	Y51	Z51	

466	4.65000000	-177.45000	445.73173	-403.68474	-116.90751	394.60115	-404.70321	-223.80107	81.74069	-425.05553	-277.71870	53.24558	-471.13043	-116.33417	43.81549	-401.21598	-79.20303	65.85807	-453.54449	-163.14340	451.18830	-792.53594	-104.22394	370.16249	-777.94262	-210.83165	89.90291	-775.34827	-269.11815	50.86632	-731.84872	-108.76372	45.15416	-802.12581	-59.89732	63.65005	-746.98508	-143.11703	285.17661	-402.44112	-186.53070	410.82608	-377.12915	-219.05635	298.95323	-377.22915	-180.42472	394.47042	-817.49993	-201.28962	273.62095	-822.15672	-416.41115	528.10406	-391.28985	-302.90659	517.25423	-390.54310	-314.56063	406.92228	-412.12355	-431.81481	417.70118	-398.51160	-290.76323	448.56167	-385.58849	-427.99702	539.56929	-802.06758	-293.02586	521.39558	-793.94020	-451.23255	428.75333	-806.29596	-314.38507	410.40496	-785.65903	-429.85803	546.21159	-490.93016	-613.46519	634.85040	-564.87093	-430.63212	561.99258	-707.54053	-615.20300	631.30359	-644.36548	-180.35002	856.67343	-597.78012	-145.62379	790.27040	-468.98302	-150.60565	795.02500	-726.17988	-143.73499	719.25974	-577.32289	-144.27074	723.23736	-610.50698	-143.74882	703.85993	-393.42124	-232.38080	512.10606	-323.32195	-188.15175	543.70421	-276.41025	-96.98481	536.33590	-297.14642	23.21744	497.68320	-348.01929	19.68376	464.26925	-329.44211	-142.93221	724.41085	-809.10711	-166.14772	508.40715	-870.05739	-132.66425	551.70904	-911.42123	-29.42172	528.09233	-893.74175	81.21954	491.18394	-849.27850	72.78505	457.16173	-869.18959	-529.18646	484.23425	-501.25455	-525.07223	496.77897	-708.34184	-514.53444	515.96684	-516.62286	-517.66461	509.57931	-659.78846	
467	4.66000000	-176.20847	446.93148	-402.18375	-114.49396	393.45036	-404.45887	-223.64360	81.62045	-425.07359	-277.59984	53.16546	-471.21953	-116.23969	43.62220	-401.23780	-79.10396	65.70089	-453.46317	-161.14802	450.86141	-794.16668	-102.40093	369.04622	-779.33676	-210.73522	89.60966	-775.08604	-269.25102	50.73505	-731.31349	-108.76168	45.09001	-802.15896	-59.74897	63.36905	-746.97667	-141.49946	284.38378	-402.35246	-184.15106	410.19267	-376.80542	-217.29140	298.64914	-376.83848	-178.55464	393.60605	-818.88879	-200.00891	272.85890	-822.92903	-412.99603	529.25650	-391.09588	-299.48799	517.43854	-389.99268	-312.42643	407.26606	-411.55791	-429.63195	418.98360	-398.64300	-288.27009	448.45014	-385.22298	-424.82635	541.02762	-802.19517	-290.11602	521.27971	-794.33714	-449.41311	430.35953	-806.05116	-312.38214	410.33385	-785.65305	-425.33967	545.13204	-490.72692	-606.76824	638.34703	-564.26082	-426.12983	562.68574	-707.01742	-608.63814	634.92656	-643.80574	-169.35922	850.46366	-597.49769	-134.64153	783.30421	-469.49951	-139.89756	788.45201	-725.28077	-134.65327	711.99396	-576.76300	-135.30909	716.15911	-610.42460	-132.58668	697.33603	-393.96343	-221.49443	506.43859	-322.54011	-176.67895	537.94041	-275.91729	-85.67585	530.13711	-297.18098	34.12998	491.35617	-348.10368	30.58003	457.69389	-329.59587	-131.48862	718.03194	-807.83868	-152.78215	501.11957	-866.86570	-120.39993	544.90432	-909.23508	-17.24466	522.42805	-893.19777	93.66454	486.34453	-849.22281	85.87512	452.40652	-869.24522	-525.96649	485.43387	-501.50006	-521.51819	499.24017	-708.50046	-510.77221	517.76376	-516.31344	-514.13433	511.61168	-659.36280	
468	4.67000000	-174.94977	449.64922	-399.86433	-111.88406	392.33206	-404.26480	-223.40916	81.51308	-425.16325	-277.36633	53.13465	-471.30722	-116.14546	43.39127	-401.19943	-79.11432	65.48509	-453.28784	-158.75107	450.49149	-795.22723	-100.51327	367.88517	-780.63018	-210.64116	89.40569	-774.90672	-269.13827	50.55662	-730.91381	-108.72953	44.99867	-802.14364	-59.54948	62.99674	-746.94245	-139.66708	283.57886	-402.20069	-181.40846	409.73342	-376.71513	-215.20121	298.46831	-376.49255	-176.57858	392.60125	-820.07925	-198.64252	271.91342	-823.44889	-409.39946	530.42381	-390.53688	-295.93369	517.44791	-389.46302	-310.01269	407.47164	-411.17236	-427.26601	420.51502	-398.47260	-285.52185	448.38425	-384.91399	-421.44240	542.59147	-802.54375	-286.92690	521.18262	-794.98583	-447.40182	432.05978	-806.00065	-310.26637	410.39128	-785.99899	-420.76095	544.32007	-490.56633	-600.01181	641.90936	-563.61223	-421.58236	563.62058	-706.76122	-601.98597	638.68112	-643.35504	-158.85435	844.71344	-597.05668	-124.03526	776.88309	-469.92638	-129.65305	782.57835	-724.52705	-125.84818	705.42462	-576.06763	-126.51576	709.79724	-609.84625	-121.60031	691.25964	-394.50140	-210.57472	501.32778	-322.98729	-164.99197	532.40771	-275.65774	-74.14249	524.28882	-297.22779	45.32262	485.55878	-348.31940	41.77789	451.74402	-329.94340	-120.46938	712.27288	-806.49750	-138.97257	494.01716	-862.39974	-108.29722	538.68070	-907.12011	-5.22815	517.37075	-892.39282	106.09478	482.31089	-848.99028	98.78574	448.46873	-869.53862	-522.59799	486.86035	-501.83230	-517.87448	501.91840	-708.73766	-506.93173	519.59316	-516.13004	-510.47431	513.80016	-659.22673	
469	4.68000000	-171.08689	449.20101	-400.24517	-109.12511	391.47804	-403.95679	-223.12388	81.41321	-425.30479	-277.06743	53.17667	-471.44932	-116.06852	43.17010	-401.14320	-79.00027	65.12013	-453.21506	-156.07638	449.45996	-796.03566	-98.58123	366.74136	-781.85448	-210.52575	89.16919	-774.72799	-268.96209	50.41620	-730.60512	-108.66904	44.87454	-802.14646	-59.42533	62.82354	-747.26143	-137.70061	282.64312	-402.24984	-178.56115	409.23304	-376.94345	-213.06012	298.21452	-376.40837	-174.57848	391.59434	-821.07022	-197.27030	271.00156	-823.91270	-405.46116	531.60466	-390.21577	-292.39465	517.42933	-389.21840	-307.42771	407.51974	-411.26947	-424.69003	422.09468	-398.37079	-282.50567	448.30407	-384.94534	-417.89043	544.26975	-802.85401	-283.60438	521.38954	-795.98189	-445.29166	433.98369	-806.12545	-308.19075	410.80748	-787.00238	-416.18222	543.89188	-490.43519	-593.24318	645.61727	-563.03843	-417.08561	564.87770	-706.82247	-595.30001	642.57385	-642.88962	-148.82355	839.44617	-596.61389	-113.88379	771.07658	-470.35345	-119.84368	777.42200	-723.87714	-117.42586	699.52357	-575.35897	-118.91713	703.27373	-610.48413	-110.90252	685.76944	-395.01253	-199.56661	496.46089	-324.01922	-153.23232	527.04601	-275.76981	-62.44027	518.84884	-297.37429	56.71785	480.40245	-348.74181	53.32026	446.73833	-330.30880	-109.92136	707.20147	-805.23543	-127.00842	488.60347	-860.88961	-96.78092	533.40518	-905.48377	6.62445	513.03587	-891.07006	118.45164	479.24244	-848.61950	111.50803	445.32661	-869.46876	-519.09745	488.59571	-502.24144	-514.20567	504.85865	-709.05276	-503.08163	521.63645	-516.02811	-506.77399	516.17384	-659.36373	
470	4.69000000	-165.38625	446.19793	-402.51501	-106.26320	390.70595	-404.01501	-222.76056	81.31932	-425.49167	-276.83813	53.23816	-471.67772	-115.92878	43.06059	-401.17320	-78.70979	64.62740	-453.29644	-153.60417	448.31409	-797.42288	-96.58981	365.66037	-782.98520	-210.37605	88.81660	-774.44655	-268.80227	50.40703	-730.43205	-108.60093	44.72861	-802.22253	-59.39418	62.88361	-747.86968	-135.62901	281.67329	-402.68422	-175.77866	408.47024	-377.23544	-210.92850	297.89412	-376.57838	-172.57785	390.77919	-822.02451	-195.96055	270.31279	-824.39968	-401.20721	532.73123	-390.39996	-288.65503	517.49864	-389.37568	-304.68325	407.61317	-411.78842	-421.72644	423.50254	-398.71827	-279.22731	448.08351	-385.37201	-414.20818	546.05285	-802.97027	-280.27776	521.90070	-797.27959	-443.11110	436.15309	-806.15981	-306.10339	411.39262	-788.05776	-411.65254	543.80052	-490.42981	-586.52725	649.42899	-562.61427	-412.58104	566.19436	-706.63502	-588.66881	646.57540	-642.40139	-139.20716	834.74780	-596.16516	-104.24764	765.89784	-470.83450	-110.60223	772.83867	-723.01852	-109.40588	694.24466	-574.68367	-112.59738	696.66277	-612.28005	-100.55672	680.87971	-395.58364	-187.91633	491.40038	-324.98424	-141.51224	521.89000	-276.24846	-50.68036	513.95503	-297.70099	68.28771	476.10759	-349.27396	65.27733	442.68428	-330.67874	-99.90542	702.71872	-803.79276	-116.70347	484.70669	-861.69654	-85.80910	528.80946	-903.55397	18.16821	509.47959	-889.39486	130.58280	477.10284	-848.04048	123.87004	443.24852	-869.15548	-515.61685	490.63014	-502.53963	-510.49688	507.87412	-709.26675	-499.12730	523.91218	-515.97735	-502.97385	518.78566	-659.29393	
471	4.70000000	-160.86187	444.04914	-404.21821	-103.43129	389.75946	-404.56079	-222.32464	81.30057	-425.72859	-276.70484	53.28855	-471.93102	-115.73123	42.99589	-401.27045	-78.41347	64.08690	-453.34595	-151.33258	447.65094	-798.86349	-94.57589	364.68014	-784.04135	-210.21880	88.45148	-774.17825	-268.65959	50.43885	-730.31573	-108.54180	44.59878	-802.34393	-59.36745	62.87465	-748.25056	-133.52306	280.90322	-403.25486	-172.94375	407.75330	-377.60248	-208.78500	297.57626	-377.10776	-170.58477	390.16552	-822.92004	-194.70834	269.81723	-824.83659	-396.66767	533.95536	-390.79774	-284.42668	517.55449	-389.83667	-301.69547	407.98502	-412.36175	-418.37622	424.98337	-399.39098	-275.76524	448.07362	-385.82019	-410.47061	548.05578	-803.03561	-276.90688	522.60584	-798.58832	-440.81422	438.59140	-806.09760	-303.94082	412.08035	-788.75884	-407.10499	543.91996	-490.66252	-579.89693	653.25757	-562.19307	-408.20484	567.60071	-706.61702	-582.22934	650.68009	-641.93264	-130.12344	830.73609	-595.63820	-95.15462	761.36902	-471.24388	-102.05168	768.84152	-721.73738	-101.93692	689.66335	-574.15792	-106.18688	691.44503	-612.65027	-90.58436	676.56549	-396.25954	-175.44336	486.06122	-325.41381	-129.91772	517.16902	-276.87114	-38.99995	509.76515	-298.26967	79.97000	472.77990	-349.84928	77.49388	439.47082	-331.09754	-90.48274	698.94454	-802.24392	-105.38856	480.60862	-859.36782	-75.28152	524.68138	-900.99845	29.22685	506.70011	-887.65553	142.29594	475.80520	-847.28994	135.75890	442.02058	-868.46439	-512.08631	492.83346	-502.88922	-506.93789	510.99766	-709.53517	-495.06071	526.19234	-516.05655	-499.25157	521.56185	-659.30653	
